
<svg version="1.1" xmlns="http://www.w3.org/2000/svg" xmlns:xlink="http://www.w3.org/1999/xlink" x="0px" y="0px"   viewBox="0 0 415 415" enable-background="new 0 0 415 415" xml:space="preserve" width='415px' height='370px' class='venue-map-svg' id='venueMap-2184-415'> <switch> <g> <rect x="194.567" y="149.737" fill="#87909A" width="27.416" height="21.103"/> <rect x="185.972" y="31.94" fill="#87909A" width="40.203" height="30.946"/> <g> <path fill="#FFFFFF" d="M195.989,49.124c0,0.628-0.228,1.118-0.684,1.47s-1.074,0.527-1.855,0.527 c-0.846,0-1.498-0.109-1.953-0.327v-0.801c0.293,0.124,0.612,0.221,0.957,0.293s0.687,0.107,1.025,0.107 c0.553,0,0.97-0.105,1.25-0.315s0.42-0.502,0.42-0.876c0-0.248-0.05-0.45-0.149-0.608s-0.265-0.304-0.498-0.437 s-0.587-0.285-1.062-0.454c-0.664-0.238-1.139-0.519-1.423-0.845s-0.427-0.75-0.427-1.274c0-0.55,0.207-0.988,0.62-1.313 s0.96-0.488,1.641-0.488c0.709,0,1.362,0.13,1.958,0.391l-0.259,0.723c-0.589-0.248-1.162-0.371-1.719-0.371 c-0.439,0-0.783,0.094-1.03,0.283s-0.371,0.451-0.371,0.786c0,0.248,0.045,0.45,0.137,0.608s0.245,0.303,0.461,0.435 s0.548,0.277,0.994,0.437c0.749,0.267,1.264,0.553,1.545,0.859S195.989,48.636,195.989,49.124z"/> <path fill="#FFFFFF" d="M199.646,51.023h-0.83v-6.401h-2.261v-0.737h5.352v0.737h-2.261V51.023z"/> <path fill="#FFFFFF" d="M207.468,51.023l-0.889-2.271h-2.861l-0.879,2.271H202l2.822-7.168h0.698l2.808,7.168H207.468z M206.321,48.006l-0.83-2.212c-0.107-0.28-0.218-0.624-0.332-1.03c-0.071,0.313-0.174,0.656-0.308,1.03l-0.84,2.212H206.321z"/> <path fill="#FFFFFF" d="M212.449,47.283h2.427v3.472c-0.378,0.121-0.762,0.211-1.152,0.273s-0.843,0.093-1.357,0.093 c-1.081,0-1.922-0.321-2.524-0.964s-0.903-1.544-0.903-2.703c0-0.742,0.149-1.393,0.446-1.951 c0.299-0.558,0.728-0.985,1.287-1.279s1.216-0.442,1.968-0.442c0.762,0,1.472,0.14,2.129,0.42l-0.322,0.732 c-0.645-0.273-1.265-0.41-1.86-0.41c-0.869,0-1.548,0.259-2.036,0.776s-0.732,1.235-0.732,2.153c0,0.963,0.235,1.694,0.706,2.192 c0.47,0.498,1.161,0.747,2.072,0.747c0.495,0,0.979-0.057,1.45-0.171v-2.197h-1.597V47.283z"/> <path fill="#FFFFFF" d="M220.569,51.023h-3.979v-7.139h3.979v0.737h-3.149v2.3h2.959v0.732h-2.959v2.627h3.149V51.023z"/> </g> <path fill="#3FA9FF" d="M139,70v192h134V70H139z M225,173h-33v-26h33V173z"/> <g> <path fill="#FFFFFF" d="M196.999,159c-0.471,0-0.842,0.157-1.115,0.47s-0.409,0.743-0.409,1.288c0,0.561,0.131,0.994,0.394,1.299 s0.637,0.458,1.124,0.458c0.299,0,0.64-0.054,1.022-0.161v0.437c-0.297,0.111-0.663,0.167-1.099,0.167 c-0.631,0-1.118-0.191-1.46-0.574s-0.514-0.927-0.514-1.632c0-0.441,0.083-0.828,0.248-1.16s0.403-0.588,0.715-0.768 s0.678-0.27,1.1-0.27c0.449,0,0.842,0.082,1.178,0.246l-0.211,0.428C197.647,159.076,197.323,159,196.999,159z"/> <path fill="#FFFFFF" d="M202.668,160.752c0,0.686-0.173,1.225-0.52,1.617s-0.829,0.589-1.446,0.589 c-0.631,0-1.118-0.193-1.46-0.579s-0.514-0.93-0.514-1.633c0-0.697,0.172-1.238,0.516-1.622s0.832-0.576,1.465-0.576 c0.615,0,1.096,0.195,1.441,0.586S202.668,160.064,202.668,160.752z M199.255,160.752c0,0.58,0.124,1.02,0.371,1.32 s0.606,0.45,1.077,0.45c0.475,0,0.833-0.149,1.075-0.448s0.363-0.739,0.363-1.321c0-0.576-0.121-1.013-0.362-1.311 s-0.598-0.447-1.071-0.447c-0.475,0-0.835,0.15-1.083,0.45S199.255,160.18,199.255,160.752z"/> <path fill="#FFFFFF" d="M206.969,162.899H206.4l-2.341-3.595h-0.023c0.031,0.422,0.047,0.809,0.047,1.16v2.435h-0.46v-4.283 h0.563l2.335,3.58h0.023c-0.004-0.053-0.013-0.222-0.026-0.508s-0.019-0.491-0.015-0.614v-2.458h0.466V162.899z"/> <path fill="#FFFFFF" d="M210.563,161.76c0,0.377-0.137,0.671-0.41,0.882s-0.645,0.316-1.113,0.316 c-0.508,0-0.898-0.065-1.172-0.196v-0.48c0.176,0.074,0.367,0.133,0.574,0.176s0.412,0.064,0.615,0.064 c0.332,0,0.582-0.063,0.75-0.189s0.252-0.301,0.252-0.526c0-0.148-0.03-0.27-0.09-0.365s-0.159-0.182-0.299-0.262 s-0.352-0.171-0.637-0.272c-0.398-0.143-0.684-0.312-0.854-0.507c-0.172-0.195-0.257-0.45-0.257-0.765 c0-0.33,0.124-0.593,0.372-0.788s0.576-0.293,0.984-0.293c0.426,0,0.817,0.078,1.175,0.234l-0.155,0.434 c-0.354-0.148-0.697-0.223-1.031-0.223c-0.264,0-0.47,0.057-0.618,0.17s-0.223,0.271-0.223,0.472c0,0.148,0.027,0.27,0.082,0.365 s0.146,0.182,0.276,0.261s0.329,0.167,0.597,0.262c0.449,0.16,0.758,0.332,0.927,0.516S210.563,161.467,210.563,161.76z"/> <path fill="#FFFFFF" d="M215.157,160.752c0,0.686-0.174,1.225-0.52,1.617c-0.348,0.393-0.829,0.589-1.446,0.589 c-0.631,0-1.118-0.193-1.46-0.579c-0.344-0.386-0.515-0.93-0.515-1.633c0-0.697,0.172-1.238,0.516-1.622s0.832-0.576,1.465-0.576 c0.615,0,1.096,0.195,1.441,0.586S215.157,160.064,215.157,160.752z M211.744,160.752c0,0.58,0.123,1.02,0.37,1.32 s0.606,0.45,1.077,0.45c0.475,0,0.833-0.149,1.075-0.448s0.363-0.739,0.363-1.321c0-0.576-0.121-1.013-0.361-1.311 c-0.242-0.298-0.599-0.447-1.071-0.447c-0.475,0-0.836,0.15-1.083,0.45S211.744,160.18,211.744,160.752z"/> <path fill="#FFFFFF" d="M216.112,162.899v-4.283h0.498v3.832h1.89v0.451H216.112z"/> <path fill="#FFFFFF" d="M221.614,162.899h-2.388v-4.283h2.388v0.442h-1.89v1.38h1.775v0.439h-1.775v1.576h1.89V162.899z"/> </g> <polygon fill="#ED1848" points="80,260 80,293 80.896,293 80.777,293.38 96.52,308.426 129.133,277.382 123.218,272.6 129,266.958 129,260 "/> <rect x="103" y="177" fill="#ED1848" width="26" height="50"/> <polygon fill="#ED1848" points="103,174 129,174 129,157 117,157 117,141 129,141 129,123 103,123 "/> <rect x="284" y="119" fill="#ED1848" width="35" height="63"/> <polygon fill="#ED1848" points="333,185 332,185 284,185 284,248 333,248 "/> <polygon fill="#ED1848" points="319,116 326,116 326,114 326,49 284,49 284,116 "/> <rect x="149" y="278" fill="#ED1848" width="33" height="50"/> <polygon fill="#ED1848" points="288.99,282.669 285.313,286.169 282.453,284 277,284 277,328 303,328 317.635,312.332 "/> <polygon fill="#ED1848" points="284,251 284,265.389 284,265.531 284,269 293.595,278.286 291.163,280.6 319.685,310.136 333,295.882 333,266 333,251 "/> <rect x="238" y="278" fill="#ED1848" width="34" height="50"/> <rect x="103" y="71" fill="#ED1848" width="26" height="49"/> <rect x="185" y="278" fill="#ED1848" width="50" height="50"/> <polygon fill="#ED1848" points="129,257 129,230 103,230 103,236 80,236 80,257 "/> <polygon fill="#ED1848" points="146,278 144.651,278 137.709,284.313 131.487,279.285 98.692,310.502 117,328 145,328 146,328 "/> <rect x="28" y="164" fill="#47AA42" width="19" height="19"/> <polygon fill="#47AA42" points="58,161 58,173 74,173 74,117 58,117 58,128 28,128 28,161 "/> <polygon fill="#47AA42" points="58,219 58,230 74,230 74,176 58,176 58,186 28,186 28,219 "/> <rect x="28" y="222" fill="#47AA42" width="19" height="18"/> <polygon fill="#9A4D9E" points="291,345.075 291,338.97 291,333 237,333 237,348 249,348 249,357 249,376 281,376 281,348 291,348 "/> <rect x="28" y="106" fill="#47AA42" width="19" height="19"/> <polygon fill="#47AA42" points="58,103 58,114 74,114 74,88.5 74,61 57,61 57,72 28,72 28,103 "/> <path fill="#9A4D9E" d="M82.082,322.109l-7.692-7.198l-21.217,22.355L48,332.429v-21.026l27.317-12.79l15.953,14.81 L82.082,322.109z M65.195,329.16l-9.632,10.209l10.548,10.363l9.837-10.427L65.195,329.16z M108.536,329.956L93.457,315.61 l-9.126,8.624l5.302,4.971l-21.381,22.896L73,357h23.411L108.536,329.956z M127,360h-12v-20h5v-7h-8.502l-0.905-0.868L97,361.371 V376h30V360z M74,290H47v-3H28v10.607V310h17.504L74,295.799V290z"/> <polygon fill="#9A4D9E" points="137,376 137,348 127,348 127,345.075 127,338.97 127,333 181,333 181,348 171,348 171,352.217 171,357.303 171,376 "/> <polygon fill="#47AA42" points="58,275 58,287 74,287 74,233 58,233 58,243 28,243 28,275 "/> <path fill="#9A4D9E" d="M308.123,333L318,358.085V376h-27v-16h13v-20h-5v-7H308.123z M335.918,322.109l7.692-7.198l21.217,22.355 l5.174-4.837v-21.026l-27.317-12.79l-15.953,14.81L335.918,322.109z M342.051,339.306l9.837,10.427l10.548-10.363l-9.632-10.209 L342.051,339.306z M321.589,357H345l4.748-4.899l-21.381-22.896l5.302-4.971l-9.126-8.624l-15.079,14.346L321.589,357z M344,295.799L372.496,310H390v-12.393V287h-19v3h-27V295.799z"/> <path fill="#9A4D9E" d="M190,358h-16v18h16V358z M193,357v-9h-9v-15h50v15h-8v4.217v5.086V376h-33V357z M246,376h-17v-18h17V376z" /> <rect x="371" y="164" fill="#47AA42" width="19" height="19"/> <polygon fill="#47AA42" points="360,161 360,173 344,173 344,117 360,117 360,128 390,128 390,161 "/> <polygon fill="#47AA42" points="360,219 360,230 344,230 344,176 360,176 360,186 390,186 390,219 "/> <rect x="371" y="222" fill="#47AA42" width="19" height="18"/> <rect x="371" y="106" fill="#47AA42" width="19" height="19"/> <polygon fill="#47AA42" points="360,103 360,114 344,114 344,88.5 344,61 361,61 361,72 390,72 390,103 "/> <polygon fill="#47AA42" points="360,275 360,287 344,287 344,233 360,233 360,243 390,243 390,275 "/> <g> </g> <g> </g> <g> </g> <g> </g> <g> </g> <g> </g> <g> </g> <g> </g> <g> </g> <g> </g> <g> </g> <g> </g> <g> </g> <g> </g> <g> </g> </g> </switch> 
  <style>
                .cat-shape { fill: #AAAAAA; stroke: #AAAAAA; }          g.section:hover .cat-shape { fill: #999999; stroke: #999999; }
        g.cat0  .cat-shape { fill: #FF9800; stroke: #FF9800; }  g.cat0  g.section:hover .cat-shape { fill: #B36A00; stroke: #B36A00; }
        g.cat1  .cat-shape { fill: #E91E63; stroke: #E91E63; }  g.cat1  g.section:hover .cat-shape { fill: #AA1145; stroke: #AA1145; }
        g.cat2  .cat-shape { fill: #9c27b0; stroke: #9c27b0; }  g.cat2  g.section:hover .cat-shape { fill: #641971; stroke: #641971; }
        g.cat3  .cat-shape { fill: #673ab7; stroke: #673ab7; }  g.cat3  g.section:hover .cat-shape { fill: #46287d; stroke: #46287d; }
        g.cat4  .cat-shape { fill: #3f51b5; stroke: #3f51b5; }  g.cat4  g.section:hover .cat-shape { fill: #2b387c; stroke: #2b387c; }
        g.cat5  .cat-shape { fill: #2196f3; stroke: #2196f3; }  g.cat5  g.section:hover .cat-shape { fill: #0a6ebd; stroke: #0a6ebd; }
        g.cat6  .cat-shape { fill: #00bcd4; stroke: #00bcd4; }  g.cat6  g.section:hover .cat-shape { fill: #007888; stroke: #007888; }
        g.cat7  .cat-shape { fill: #009688; stroke: #009688; }  g.cat7  g.section:hover .cat-shape { fill: #004a43; stroke: #004a43; }
        g.cat8  .cat-shape { fill: #4caf50; stroke: #4caf50; }  g.cat8  g.section:hover .cat-shape { fill: #357a38; stroke: #357a38; }
        g.cat9  .cat-shape { fill: #8bc34a; stroke: #8bc34a; }  g.cat9  g.section:hover .cat-shape { fill: #649130; stroke: #649130; }
        g.cat10 .cat-shape { fill: #cddc39; stroke: #cddc39; }  g.cat10 g.section:hover .cat-shape { fill: #9daa1e; stroke: #9daa1e; }
        g.cat11 .cat-shape { fill: #f44336; stroke: #f44336; }  g.cat11 g.section:hover .cat-shape { fill: #d2190b; stroke: #d2190b; }
        g.cat12 .cat-shape { fill: #ffc107; stroke: #ffc107; }  g.cat12 g.section:hover .cat-shape { fill: #b98b00; stroke: #b98b00; }
        g.cat13 .cat-shape { fill: #ff9800; stroke: #ff9800; }  g.cat13 g.section:hover .cat-shape { fill: #b36a00; stroke: #b36a00; }
        g.cat14 .cat-shape { fill: #ff5722; stroke: #ff5722; }  g.cat14 g.section:hover .cat-shape { fill: #d43300; stroke: #d43300; }
        g.cat15 .cat-shape { fill: #d50085; stroke: #d50085; }  g.cat15 g.section:hover .cat-shape { fill: #890055; stroke: #890055; }

        g.category .cat-shape { stroke-width: 2; }

        g.section { cursor: pointer; }

        g.section text.label {
            font-family: Arial, sans-serif;
            font-size: 6px;
            text-anchor: middle;
            font-weight: bold;
            fill: #FFFFFF;
        }
    </style>
  <g class='category cat2' data-category='2'>
    <g class='section' data-section='1002184001' id='shape-2-1002184001'>
      <path d='M139.0 70.0 L139.0 262.0 L273.0 262.0 L273.0 70.0 L139.0 70.0 Z M225.0 173.0 L192.0 173.0 L192.0 147.0 L225.0 147.0 L225.0 173.0 Z' class='cat-shape' />
    </g>
  </g>
  <g class='category cat1' data-category='1'>
    <g class='section' data-section='301' id='shape-1-301'>
      <path d='M149.0 278.0 L182.0 278.0 L182.0 328.0 L149.0 328.0 L149.0 278.0 Z' class='cat-shape' />
      <text class='label' x='165.5' y='311' transform='rotate(0 165.5 303)'>301</text>
    </g>
    <g class='section' data-section='302' id='shape-1-302'>
      <path d='M185.0 278.0 L235.0 278.0 L235.0 328.0 L185.0 328.0 L185.0 278.0 Z' class='cat-shape' />
      <text class='label' x='210' y='311' transform='rotate(0 210 303)'>302</text>
    </g>
    <g class='section' data-section='303' id='shape-1-303'>
      <path d='M238.0 278.0 L272.0 278.0 L272.0 328.0 L238.0 328.0 L238.0 278.0 Z' class='cat-shape' />
      <text class='label' x='255' y='311' transform='rotate(0 255 303)'>303</text>
    </g>
    <g class='section' data-section='304' id='shape-1-304'>
      <path d='M288.989990234375 282.66900634765625 L285.31298828125 286.16900634765625 L282.4530029296875 284.0 L277.0 284.0 L277.0 328.0 L303.0 328.0 L317.635009765625 312.3320007324219 Z' class='cat-shape' />
      <text class='label' x='297.318' y='313.335' transform='rotate(0 297.318 305.335)'>304</text>
    </g>
    <g class='section' data-section='305' id='shape-1-305'>
      <path d='M284.0 251.0 L284.0 265.3890075683594 L284.0 265.531005859375 L284.0 269.0 L293.5950012207031 278.2860107421875 L291.1629943847656 280.6000061035156 L319.68499755859375 310.135986328125 L333.0 295.8819885253906 L333.0 266.0 L333.0 251.0 Z' class='cat-shape' />
      <text class='label' x='308.5' y='288.568' transform='rotate(0 308.5 280.568)'>305</text>
    </g>
    <g class='section' data-section='306' id='shape-1-306'>
      <path d='M333.0 185.0 L332.0 185.0 L284.0 185.0 L284.0 248.0 L333.0 248.0 Z' class='cat-shape' />
      <text class='label' x='308.5' y='224.5' transform='rotate(0 308.5 216.5)'>306</text>
    </g>
    <g class='section' data-section='307' id='shape-1-307'>
      <path d='M284.0 119.0 L319.0 119.0 L319.0 182.0 L284.0 182.0 L284.0 119.0 Z' class='cat-shape' />
      <text class='label' x='301.5' y='158.5' transform='rotate(0 301.5 150.5)'>307</text>
    </g>
    <g class='section' data-section='308' id='shape-1-308'>
      <path d='M319.0 116.0 L326.0 116.0 L326.0 114.0 L326.0 49.0 L284.0 49.0 L284.0 116.0 Z' class='cat-shape' />
      <text class='label' x='305' y='90.5' transform='rotate(0 305 82.5)'>308</text>
    </g>
    <g class='section' data-section='314' id='shape-1-314'>
      <path d='M103.0 71.0 L129.0 71.0 L129.0 120.0 L103.0 120.0 L103.0 71.0 Z' class='cat-shape' />
      <text class='label' x='116' y='103.5' transform='rotate(0 116 95.5)'>314</text>
    </g>
    <g class='section' data-section='315' id='shape-1-315'>
      <path d='M103.0 174.0 L129.0 174.0 L129.0 157.0 L117.0 157.0 L117.0 141.0 L129.0 141.0 L129.0 123.0 L103.0 123.0 Z' class='cat-shape' />
      <text class='label' x='116' y='140' transform='rotate(0 116 132)'>315</text>
    </g>
    <g class='section' data-section='316' id='shape-1-316'>
      <path d='M103.0 177.0 L129.0 177.0 L129.0 227.0 L103.0 227.0 L103.0 177.0 Z' class='cat-shape' />
      <text class='label' x='116' y='210' transform='rotate(0 116 202)'>316</text>
    </g>
    <g class='section' data-section='317' id='shape-1-317'>
      <path d='M129.0 257.0 L129.0 230.0 L103.0 230.0 L103.0 236.0 L80.0 236.0 L80.0 257.0 Z' class='cat-shape' />
      <text class='label' x='104.5' y='251.5' transform='rotate(0 104.5 243.5)'>317</text>
    </g>
    <g class='section' data-section='318' id='shape-1-318'>
      <path d='M80.0 260.0 L80.0 293.0 L80.89600372314453 293.0 L80.7770004272461 293.3800048828125 L96.5199966430664 308.4259948730469 L129.13299560546875 277.3819885253906 L123.21800231933594 272.6000061035156 L129.0 266.9580078125 L129.0 260.0 Z' class='cat-shape' />
      <text class='label' x='104.566' y='288' transform='rotate(0 104.566 280)'>318</text>
    </g>
    <g class='section' data-section='319' id='shape-1-319'>
      <path d='M146.0 278.0 L144.6510009765625 278.0 L137.70899963378906 284.31298828125 L131.48699951171875 279.2850036621094 L98.69200134277344 310.50201416015625 L117.0 328.0 L145.0 328.0 L146.0 328.0 Z' class='cat-shape' />
      <text class='label' x='122.346' y='311' transform='rotate(0 122.346 303)'>319</text>
    </g>
  </g>
  <g class='category cat3' data-category='3'>
    <g class='section' data-section='405' id='shape-3-405'>
      <path d='M360.0 275.0 L360.0 287.0 L344.0 287.0 L344.0 233.0 L360.0 233.0 L360.0 243.0 L390.0 243.0 L390.0 275.0 Z' class='cat-shape' />
      <text class='label' x='367' y='268' transform='rotate(0 367 260)'>405</text>
    </g>
    <g class='section' data-section='406' id='shape-3-406'>
      <path d='M360.0 219.0 L360.0 230.0 L344.0 230.0 L344.0 176.0 L360.0 176.0 L360.0 186.0 L390.0 186.0 L390.0 219.0 Z' class='cat-shape' />
      <text class='label' x='367' y='211' transform='rotate(0 367 203)'>406</text>
    </g>
    <g class='section' data-section='407' id='shape-3-407'>
      <path d='M360.0 161.0 L360.0 173.0 L344.0 173.0 L344.0 117.0 L360.0 117.0 L360.0 128.0 L390.0 128.0 L390.0 161.0 Z' class='cat-shape' />
      <text class='label' x='367' y='153' transform='rotate(0 367 145)'>407</text>
    </g>
    <g class='section' data-section='408' id='shape-3-408'>
      <path d='M360.0 103.0 L360.0 114.0 L344.0 114.0 L344.0 88.5 L344.0 61.0 L361.0 61.0 L361.0 72.0 L390.0 72.0 L390.0 103.0 Z' class='cat-shape' />
      <text class='label' x='367' y='95.5' transform='rotate(0 367 87.5)'>408</text>
    </g>
    <g class='section' data-section='416' id='shape-3-416'>
      <path d='M58.0 103.0 L58.0 114.0 L74.0 114.0 L74.0 88.5 L74.0 61.0 L57.0 61.0 L57.0 72.0 L28.0 72.0 L28.0 103.0 Z' class='cat-shape' />
      <text class='label' x='51' y='95.5' transform='rotate(0 51 87.5)'>416</text>
    </g>
    <g class='section' data-section='417' id='shape-3-417'>
      <path d='M58.0 161.0 L58.0 173.0 L74.0 173.0 L74.0 117.0 L58.0 117.0 L58.0 128.0 L28.0 128.0 L28.0 161.0 Z' class='cat-shape' />
      <text class='label' x='51' y='153' transform='rotate(0 51 145)'>417</text>
    </g>
    <g class='section' data-section='418' id='shape-3-418'>
      <path d='M58.0 219.0 L58.0 230.0 L74.0 230.0 L74.0 176.0 L58.0 176.0 L58.0 186.0 L28.0 186.0 L28.0 219.0 Z' class='cat-shape' />
      <text class='label' x='51' y='211' transform='rotate(0 51 203)'>418</text>
    </g>
    <g class='section' data-section='419' id='shape-3-419'>
      <path d='M58.0 275.0 L58.0 287.0 L74.0 287.0 L74.0 233.0 L58.0 233.0 L58.0 243.0 L28.0 243.0 L28.0 275.0 Z' class='cat-shape' />
      <text class='label' x='51' y='268' transform='rotate(0 51 260)'>419</text>
    </g>
    <g class='section' data-section='CAT 3' id='shape-3-cat 3'>
      <path d='M371.0 222.0 L390.0 222.0 L390.0 240.0 L371.0 240.0 L371.0 222.0 Z' class='cat-shape' />
      <text class='label' x='380.5' y='237.4' transform='rotate(0 380.5 231)'>Cat 3</text>
    </g>
    <g class='section' data-section='CAT 3' id='shape-3-cat 3'>
      <path d='M371.0 164.0 L390.0 164.0 L390.0 183.0 L371.0 183.0 L371.0 164.0 Z' class='cat-shape' />
      <text class='label' x='380.5' y='179.9' transform='rotate(0 380.5 173.5)'>Cat 3</text>
    </g>
    <g class='section' data-section='CAT 3' id='shape-3-cat 3'>
      <path d='M371.0 106.0 L390.0 106.0 L390.0 125.0 L371.0 125.0 L371.0 106.0 Z' class='cat-shape' />
      <text class='label' x='380.5' y='121.9' transform='rotate(0 380.5 115.5)'>Cat 3</text>
    </g>
    <g class='section' data-section='CAT 3' id='shape-3-cat 3'>
      <path d='M28.0 106.0 L47.0 106.0 L47.0 125.0 L28.0 125.0 L28.0 106.0 Z' class='cat-shape' />
      <text class='label' x='37.5' y='121.9' transform='rotate(0 37.5 115.5)'>Cat 3</text>
    </g>
    <g class='section' data-section='CAT 3' id='shape-3-cat 3'>
      <path d='M28.0 164.0 L47.0 164.0 L47.0 183.0 L28.0 183.0 L28.0 164.0 Z' class='cat-shape' />
      <text class='label' x='37.5' y='179.9' transform='rotate(0 37.5 173.5)'>Cat 3</text>
    </g>
    <g class='section' data-section='CAT 3' id='shape-3-cat 3'>
      <path d='M28.0 222.0 L47.0 222.0 L47.0 240.0 L28.0 240.0 L28.0 222.0 Z' class='cat-shape' />
      <text class='label' x='37.5' y='237.4' transform='rotate(0 37.5 231)'>Cat 3</text>
    </g>
  </g>
  <g class='category cat4' data-category='4'>
    <g class='section' data-section='401' id='shape-4-401'>
      <path d='M137.0 376.0 L137.0 348.0 L127.0 348.0 L127.0 345.07501220703125 L127.0 338.9700012207031 L127.0 333.0 L181.0 333.0 L181.0 348.0 L171.0 348.0 L171.0 352.2170104980469 L171.0 357.3030090332031 L171.0 376.0 Z' class='cat-shape' />
      <text class='label' x='154' y='362.5' transform='rotate(0 154 354.5)'>401</text>
    </g>
    <g class='section' data-section='402' id='shape-4-402'>
      <path d='M190.0 358.0 L174.0 358.0 L174.0 376.0 L190.0 376.0 L190.0 358.0 Z M193.0 357.0 L193.0 348.0 L184.0 348.0 L184.0 333.0 L234.0 333.0 L234.0 348.0 L226.0 348.0 L226.0 352.2170104980469 L226.0 357.3030090332031 L226.0 376.0 L193.0 376.0 L193.0 357.0 Z M246.0 376.0 L229.0 376.0 L229.0 358.0 L246.0 358.0 L246.0 376.0 Z' class='cat-shape' />
      <text class='label' x='210' y='362.5' transform='rotate(0 210 354.5)'>402</text>
    </g>
    <g class='section' data-section='403' id='shape-4-403'>
      <path d='M291.0 345.07501220703125 L291.0 338.9700012207031 L291.0 333.0 L237.0 333.0 L237.0 348.0 L249.0 348.0 L249.0 357.0 L249.0 376.0 L281.0 376.0 L281.0 348.0 L291.0 348.0 Z' class='cat-shape' />
      <text class='label' x='264' y='362.5' transform='rotate(0 264 354.5)'>403</text>
    </g>
    <g class='section' data-section='404' id='shape-4-404'>
      <path d='M308.12298583984375 333.0 L318.0 358.0849914550781 L318.0 376.0 L291.0 376.0 L291.0 360.0 L304.0 360.0 L304.0 340.0 L299.0 340.0 L299.0 333.0 L308.12298583984375 333.0 Z M335.9179992675781 322.1090087890625 L343.6099853515625 314.9110107421875 L364.8269958496094 337.2660217285156 L370.0010070800781 332.42901611328125 L370.0010070800781 311.40301513671875 L342.68402099609375 298.6130065917969 L326.73101806640625 313.4230041503906 L335.9179992675781 322.1090087890625 Z M342.0509948730469 339.3059997558594 L351.88800048828125 349.7330017089844 L362.4360046386719 339.3699951171875 L352.80401611328125 329.1610107421875 L342.0509948730469 339.3059997558594 Z M321.5889892578125 357.0 L345.0 357.0 L349.74798583984375 352.10101318359375 L328.3669738769531 329.20501708984375 L333.6689758300781 324.2340087890625 L324.54296875 315.6100158691406 L309.4639587402344 329.9560241699219 L321.5889892578125 357.0 Z M344.0 295.79901123046875 L372.4960021972656 310.0 L390.0 310.0 L390.0 297.60699462890625 L390.0 287.0 L371.0 287.0 L371.0 290.0 L344.0 290.0 L344.0 295.79901123046875 Z' class='cat-shape' />
      <text class='label' x='332' y='347' transform='rotate(0 332 339)'>404</text>
    </g>
    <g class='section' data-section='420' id='shape-4-420'>
      <path d='M82.08200073242188 322.1090087890625 L74.38999938964844 314.9110107421875 L53.17300033569336 337.2660217285156 L48.0 332.4289855957031 L48.0 311.4029846191406 L75.31700134277344 298.61297607421875 L91.27000427246094 313.4229736328125 L82.08200073242188 322.1090087890625 Z M65.19499969482422 329.1600036621094 L55.5629997253418 339.3690185546875 L66.11100006103516 349.7320251464844 L75.947998046875 339.3050231933594 L65.19499969482422 329.1600036621094 Z M108.53600311279297 329.95599365234375 L93.45700073242188 315.6099853515625 L84.33100128173828 324.2339782714844 L89.63300323486328 329.2049865722656 L68.25199890136719 352.1009826660156 L73.0 357.0 L96.41099548339844 357.0 L108.53600311279297 329.95599365234375 Z M127.0 360.0 L115.0 360.0 L115.0 340.0 L120.0 340.0 L120.0 333.0 L111.49800109863281 333.0 L110.59300231933594 332.1319885253906 L97.0 361.3710021972656 L97.0 376.0 L127.0 376.0 L127.0 360.0 Z M74.0 290.0 L47.0 290.0 L47.0 287.0 L28.0 287.0 L28.0 297.60699462890625 L28.0 310.0 L45.503997802734375 310.0 L74.0 295.79901123046875 L74.0 290.0 Z' class='cat-shape' />
      <text class='label' x='85' y='347' transform='rotate(0 85 339)'>420</text>
    </g>
  </g>
</svg> 